<svg xmlns="http://www.w3.org/2000/svg" xmlns:xlink="http://www.w3.org/1999/xlink" version="1.1" x="0px" y="0px" viewBox="17 -18 100 100" enable-background="new 17 -18 100 100" xml:space="preserve"><path d="M45.6,53.4v-7.1h42.9v7.1H45.6z M74.1,69.5c-5.4,0-7.1-5.4-7.1-16.1h14.3C81.3,64.1,79.5,69.5,74.1,69.5z M79.5,33.8  l-5.4-5.4l7.1-7.1l-7.1-7.1l5.4-5.4l7.1,7.1l7.1-7.1l5.4,5.4L92,21.3l7.1,7.1l-5.4,5.4l-7.1-7.1L79.5,33.8z M40.2,33.8l-5.4-5.4  l7.1-7.1l-7.1-7.1l5.4-5.4l7.1,7.1l7.1-7.1l5.4,5.4l-7.1,7.1l7.1,7.1l-5.4,5.4l-7.1-7.1L40.2,33.8z M67,82c27.6,0,50-22.4,50-50  S94.6-18,67-18S17,4.4,17,32S39.4,82,67,82z"></path></svg>