<svg xmlns="http://www.w3.org/2000/svg" xmlns:xlink="http://www.w3.org/1999/xlink" version="1.1" x="0px" y="0px" viewBox="17 -18 100 100" enable-background="new 17 -18 100 100" xml:space="preserve"><path d="M67,64.1c-14.3,0-21.4-10.7-21.4-17.9c14.3,1.8,28.6,1.8,42.9,0C88.4,53.4,81.3,64.1,67,64.1z M84.9,33.8  c-7.1-5.4-12.5-10.7-12.5-16.1c0-7.1,10.7-8.9,12.5-1.8c1.8-7.1,12.5-5.4,12.5,1.8C97.4,23.1,92,28.4,84.9,33.8z M49.1,33.8  C42,28.4,36.6,23.1,36.6,17.7c0-7.1,10.7-8.9,12.5-1.8c1.8-7.1,12.5-5.4,12.5,1.8C61.6,23.1,56.3,28.4,49.1,33.8z M67,82  c27.6,0,50-22.4,50-50S94.6-18,67-18S17,4.4,17,32S39.4,82,67,82z"></path></svg>